<svg viewBox="0 0 100 100" xmlns="http://www.w3.org/2000/svg">
    <defs>
        <mask id="ring">
            <rect width="100" height="100" fill="black" />

            <circle r="8" cx="10" cy="50" transform="rotate(0 50 50)" fill="white" />
            <circle r="8" cx="10" cy="50" transform="rotate(60 50 50)" fill="white" />
            <circle r="8" cx="10" cy="50" transform="rotate(120 50 50)" fill="white" />
            <circle r="8" cx="10" cy="50" transform="rotate(180 50 50)" fill="white" />
            <circle r="8" cx="10" cy="50" transform="rotate(240 50 50)" fill="white" />
            <circle r="8" cx="10" cy="50" transform="rotate(300 50 50)" fill="white" />

            <rect width="25" height="6" x="30" y="12.35898385" transform="rotate(0 50 50)" fill="white" />
            <rect width="25" height="6" x="30" y="12.35898385" transform="rotate(60 50 50)" fill="white" />
            <rect width="25" height="6" x="30" y="12.35898385" transform="rotate(120 50 50)" fill="white" />
            <rect width="25" height="6" x="30" y="12.35898385" transform="rotate(180 50 50)" fill="white" />
            <rect width="25" height="6" x="30" y="12.35898385" transform="rotate(240 50 50)" fill="white" />
            <rect width="25" height="6" x="30" y="12.35898385" transform="rotate(300 50 50)" fill="white" />

            <circle r="3" cx="55" cy="15.35898385" transform="rotate(0 50 50)" fill="white" />
            <circle r="3" cx="55" cy="15.35898385" transform="rotate(60 50 50)" fill="white" />
            <circle r="3" cx="55" cy="15.35898385" transform="rotate(120 50 50)" fill="white" />
            <circle r="3" cx="55" cy="15.35898385" transform="rotate(180 50 50)" fill="white" />
            <circle r="3" cx="55" cy="15.35898385" transform="rotate(240 50 50)" fill="white" />
            <circle r="3" cx="55" cy="15.35898385" transform="rotate(300 50 50)" fill="white" />

            <circle r="4" cx="10" cy="50" transform="rotate(0 50 50)" fill="black" />
            <circle r="4" cx="10" cy="50" transform="rotate(60 50 50)" fill="black" />
            <circle r="4" cx="10" cy="50" transform="rotate(120 50 50)" fill="black" />
            <circle r="4" cx="10" cy="50" transform="rotate(180 50 50)" fill="black" />
            <circle r="4" cx="10" cy="50" transform="rotate(240 50 50)" fill="black" />
            <circle r="4" cx="10" cy="50" transform="rotate(300 50 50)" fill="black" />
        </mask>
        <mask id="signal">
            <rect width="100" height="100" fill="black" />

            <circle r="24" cx="50" cy="50" fill="white" />
            <circle r="20" cx="50" cy="50" fill="black" />
            <circle r="16" cx="50" cy="50" fill="white" />
            <circle r="12" cx="50" cy="50" fill="black" />

            <rect x="50" y="0" width="50" height="50" fill="black" />
            <rect x="0" y="50" width="50" height="50" fill="black" />

            <circle r="2" cx="50" cy="28" transform="rotate(0 50 50)" fill="white" />
            <circle r="2" cx="50" cy="36" transform="rotate(0 50 50)" fill="white" />
            <circle r="2" cx="50" cy="28" transform="rotate(90 50 50)" fill="white" />
            <circle r="2" cx="50" cy="36" transform="rotate(90 50 50)" fill="white" />
            <circle r="2" cx="50" cy="28" transform="rotate(180 50 50)" fill="white" />
            <circle r="2" cx="50" cy="36" transform="rotate(180 50 50)" fill="white" />
            <circle r="2" cx="50" cy="28" transform="rotate(270 50 50)" fill="white" />
            <circle r="2" cx="50" cy="36" transform="rotate(270 50 50)" fill="white" />

            <circle r="8" cx="50" cy="50" fill="white" />
            <circle r="4" cx="50" cy="50" fill="black" />
        </mask>
        <mask id="python-top">
            <rect width="100" height="100" fill="black" />
        </mask>
    </defs>

    <path fill='#ffd646' d="M 65.77355827899495,35.82407544666145 L 65.77355827899495,42.04789114175795 C 65.77355827899495,46.87313148582855 61.68268767496958,50.93438861937055 57.01774407276995,50.93438914210572 L 43.018242627369155,50.93438914210572 C 39.18354466940532,50.93438914210572 36.01032469027126,54.216373061206745 36.01032416753608,58.05665592179621 L 36.01032416753608,71.40273682837767 C 36.01032416753608,75.20110835072161 39.31327238089028,77.43526804034082 43.018242627369155,78.52500360806816 C 47.454869095592066,79.82954674187098 51.709361559946096,80.06531076117197 57.01774407276995,78.52500360806816 C 60.54628753803687,77.50337520648583 64.02566410080857,75.44734275560772 64.02566253260302,71.40273682837767 L 64.02566253260302,66.06103831181534 L 50.02616108720222,66.06103831181534 L 50.02616108720222,64.28047161689271 L 64.02566253260302,64.28047161689271 L 71.03358308337681,64.28047161689271 C 75.10697603677623,64.28047161689271 76.62488921491915,61.43919265671188 78.04149631585811,57.174540311467574 C 79.5048045774648,52.7841471559294 79.44254159059295,48.56207263628065 78.04149631585811,42.9300067520866 C 77.0348233676752,38.874919461832725 75.11215634237524,35.82407544666145 71.03358308337681,35.82407544666145 L 65.77355827899495,35.82407544666145 z M 57.89985968309859,69.62217170166058 C 59.35279060598158,69.62217326986612 60.529871039819156,70.81265767909929 60.529871039819156,72.28485243870631 C 60.529869994348815,73.76228500478177 59.352789037776034,74.96387021822292 57.89985968309859,74.96387021822292 C 56.45211847504782,74.96387021822292 55.269848326378025,73.76228500478177 55.269848326378025,72.28485243870631 C 55.26984937184838,70.81265767909929 56.452116906842285,69.62217170166058 57.89985968309859,69.62217170166058 z"/>
    <path fill='#3776aa' d="M 49.71578707616067,20.844445493066424 C 47.319750416231955,20.85557886367588 45.03158904647018,21.059926185228655 43.018242627369155,21.4161870923535 C 37.08717640410363,22.464011740023473 36.01032469027126,24.657198557859502 36.01032416753608,28.701808666970962 L 36.01032416753608,34.04350875173883 L 50.02616108720222,34.04350875173883 L 50.02616108720222,35.82407544666145 L 36.01032416753608,35.82407544666145 L 30.750301454094938,35.82407544666145 C 26.67690902343071,35.82407544666145 23.11012998913232,38.27241907929056 21.9944871433229,42.9300067520866 C 20.707607231133718,48.26868333659363 20.650527111263255,51.60010441227613 21.9944871433229,57.174540311467574 C 22.99078290960268,61.323934777647366 25.37007212767345,64.28047057142236 29.443463512867325,64.28047161689271 L 34.26242842114415,64.28047161689271 L 34.26242842114415,57.876965704877406 C 34.26242842114415,53.25081062097896 38.26508694140149,49.1701589669188 43.018242627369155,49.17015792144844 L 57.01774407276995,49.17015792144844 C 60.914709199487056,49.17015792144844 64.02566410080857,45.96152367957747 64.02566253260302,42.04789114175795 L 64.02566253260302,28.701808666970962 C 64.02566253260302,24.903437667362198 60.82130635541645,22.050119854699183 57.01774407276995,21.4161870923535 C 54.61003264540949,21.015392807337854 52.11182373608937,20.833312122456963 49.71578707616067,20.844445493066424 z M 42.136127017040515,25.140675277125716 C 43.58386665688576,25.140675277125716 44.76613837376109,26.342258399626154 44.76613837376109,27.819693056642322 C 44.76613732829073,29.291890952660406 43.58386665688576,30.482375361893585 42.136127017040515,30.482375361893585 C 40.68319713962789,30.482374839158407 39.50611566031994,29.29189042992523 39.50611566031994,27.819693056642322 C 39.506115137584764,26.342258922361324 40.68319713962789,25.140675277125716 42.136127017040515,25.140675277125716 z"/>

    <rect width="100" height="100" mask="url(#ring)" fill="#ce6113" />
    <rect width="100" height="100" mask="url(#signal)" fill="#dd9c11"/>
</svg>