<svg viewBox="0 0 100 100" xmlns="http://www.w3.org/2000/svg">
    <defs>
        <mask id="ring">
            <rect width="100" height="100" fill="black" />

            <circle r="8" cx="10" cy="50" transform="rotate(0 50 50)" fill="white" />
            <circle r="8" cx="10" cy="50" transform="rotate(60 50 50)" fill="white" />
            <circle r="8" cx="10" cy="50" transform="rotate(120 50 50)" fill="white" />
            <circle r="8" cx="10" cy="50" transform="rotate(180 50 50)" fill="white" />
            <circle r="8" cx="10" cy="50" transform="rotate(240 50 50)" fill="white" />
            <circle r="8" cx="10" cy="50" transform="rotate(300 50 50)" fill="white" />

            <rect width="25" height="6" x="30" y="12.35898385" transform="rotate(0 50 50)" fill="white" />
            <rect width="25" height="6" x="30" y="12.35898385" transform="rotate(60 50 50)" fill="white" />
            <rect width="25" height="6" x="30" y="12.35898385" transform="rotate(120 50 50)" fill="white" />
            <rect width="25" height="6" x="30" y="12.35898385" transform="rotate(180 50 50)" fill="white" />
            <rect width="25" height="6" x="30" y="12.35898385" transform="rotate(240 50 50)" fill="white" />
            <rect width="25" height="6" x="30" y="12.35898385" transform="rotate(300 50 50)" fill="white" />

            <circle r="3" cx="55" cy="15.35898385" transform="rotate(0 50 50)" fill="white" />
            <circle r="3" cx="55" cy="15.35898385" transform="rotate(60 50 50)" fill="white" />
            <circle r="3" cx="55" cy="15.35898385" transform="rotate(120 50 50)" fill="white" />
            <circle r="3" cx="55" cy="15.35898385" transform="rotate(180 50 50)" fill="white" />
            <circle r="3" cx="55" cy="15.35898385" transform="rotate(240 50 50)" fill="white" />
            <circle r="3" cx="55" cy="15.35898385" transform="rotate(300 50 50)" fill="white" />

            <circle r="4" cx="10" cy="50" transform="rotate(0 50 50)" fill="black" />
            <circle r="4" cx="10" cy="50" transform="rotate(60 50 50)" fill="black" />
            <circle r="4" cx="10" cy="50" transform="rotate(120 50 50)" fill="black" />
            <circle r="4" cx="10" cy="50" transform="rotate(180 50 50)" fill="black" />
            <circle r="4" cx="10" cy="50" transform="rotate(240 50 50)" fill="black" />
            <circle r="4" cx="10" cy="50" transform="rotate(300 50 50)" fill="black" />
        </mask>
        <mask id="signal">
            <rect width="100" height="100" fill="black" />

            <circle r="24" cx="50" cy="50" fill="white" />
            <circle r="20" cx="50" cy="50" fill="black" />
            <circle r="16" cx="50" cy="50" fill="white" />
            <circle r="12" cx="50" cy="50" fill="black" />

            <rect x="50" y="0" width="50" height="50" fill="black" />
            <rect x="0" y="50" width="50" height="50" fill="black" />

            <circle r="2" cx="50" cy="28" transform="rotate(0 50 50)" fill="white" />
            <circle r="2" cx="50" cy="36" transform="rotate(0 50 50)" fill="white" />
            <circle r="2" cx="50" cy="28" transform="rotate(90 50 50)" fill="white" />
            <circle r="2" cx="50" cy="36" transform="rotate(90 50 50)" fill="white" />
            <circle r="2" cx="50" cy="28" transform="rotate(180 50 50)" fill="white" />
            <circle r="2" cx="50" cy="36" transform="rotate(180 50 50)" fill="white" />
            <circle r="2" cx="50" cy="28" transform="rotate(270 50 50)" fill="white" />
            <circle r="2" cx="50" cy="36" transform="rotate(270 50 50)" fill="white" />

            <circle r="8" cx="50" cy="50" fill="white" />
            <circle r="4" cx="50" cy="50" fill="black" />
        </mask>
        <mask id="python-top">
            <rect width="100" height="100" fill="black" />
        </mask>
    </defs>

    <rect width="100" height="100" mask="url(#ring)" fill="#ce6113" />
    <rect width="100" height="100" mask="url(#signal)" fill="#dd9c11"/>
</svg>